HIERARCHY
ROOT Hips
{
	OFFSET	0.00	0.00	0.00
	CHANNELS 6 Xposition Yposition Zposition Zrotation Xrotation Yrotation
	JOINT Chest
	{
		OFFSET	 0.00	 5.21	 0.00
		CHANNELS 3 Zrotation Xrotation Yrotation
		JOINT Neck
		{
			OFFSET	 0.00	 18.65	 0.00
			CHANNELS 3 Zrotation Xrotation Yrotation
			JOINT Head
			{
				OFFSET	 0.00	 5.45	 0.00
				CHANNELS 3 Zrotation Xrotation Yrotation
				End Site 
				{
					OFFSET	 0.00	 3.87	 0.00
				}
			}
		}
		JOINT LeftCollar
		{
			OFFSET	 1.12	 16.23	 1.87
			CHANNELS 3 Zrotation Xrotation Yrotation
			JOINT LeftUpArm
			{
				OFFSET	 5.54	 0.00	 0.00
				CHANNELS 3 Zrotation Xrotation Yrotation
				JOINT LeftLowArm
				{
					OFFSET	 0.00	-11.96	 0.00
					CHANNELS 3 Zrotation Xrotation Yrotation
					JOINT LeftHand
					{
						OFFSET	 0.00	-9.93	 0.00
						CHANNELS 3 Zrotation Xrotation Yrotation
						End Site 
						{
							OFFSET	 0.00	-7.00	 0.00
						}
					}
				}
			}
		}
		JOINT RightCollar
		{
			OFFSET	-1.12	 16.23	 1.87
			CHANNELS 3 Zrotation Xrotation Yrotation
			JOINT RightUpArm
			{
				OFFSET	-6.07	 0.00	 0.00
				CHANNELS 3 Zrotation Xrotation Yrotation
				JOINT RightLowArm
				{
					OFFSET	 0.00	-11.82	 0.00
					CHANNELS 3 Zrotation Xrotation Yrotation
					JOINT RightHand
					{
						OFFSET	 0.00	-10.65	 0.00
						CHANNELS 3 Zrotation Xrotation Yrotation
						End Site 
						{
							OFFSET	 0.00	-7.00	 0.00
						}
					}
				}
			}
		}
	}
	JOINT LeftUpLeg
	{
		OFFSET	 3.91	 0.00	 0.00
		CHANNELS 3 Zrotation Xrotation Yrotation
		JOINT LeftLowLeg
		{
			OFFSET	 0.00	-18.34	 0.00
			CHANNELS 3 Zrotation Xrotation Yrotation
			JOINT LeftFoot
			{
				OFFSET	 0.00	-17.37	 0.00
				CHANNELS 3 Zrotation Xrotation Yrotation
				End Site 
				{
					OFFSET	 0.00	-3.46	 0.00
				}
			}
		}
	}
	JOINT RightUpLeg
	{
		OFFSET	-3.91	 0.00	 0.00
		CHANNELS 3 Zrotation Xrotation Yrotation
		JOINT RightLowLeg
		{
			OFFSET	 0.00	-17.63	 0.00
			CHANNELS 3 Zrotation Xrotation Yrotation
			JOINT RightFoot
			{
				OFFSET	 0.00	-17.14	 0.00
				CHANNELS 3 Zrotation Xrotation Yrotation
				End Site 
				{
					OFFSET	 0.00	-3.75	 0.00
				}
			}
		}
	}
}
MOTION
Frames:    23
Frame Time: 0.033333
 17.78	 34.82	-24.25	 12.41	-28.74	 25.08	-0.23	 12.62	 12.88	 11.33	 41.31	 0.00	 0.41	-41.55	 11.87	-5.31	 0.00	-4.93	 51.85	-37.58	 54.06	 157.68	-73.44	 155.41	 0.70	 1.67	-0.02	-12.38	 0.00	-10.36	-96.26	-24.66	-113.07	 75.19	-48.52	 76.44	-1.55	 0.33	 0.01	 24.03	 11.10	-4.91	 6.33	 41.17	-3.48	 0.00	-19.04	 0.00	-26.37	 41.99	 18.35	 7.84	 21.83	-31.31	 0.00	-22.37	 0.00	
 17.69	 34.91	-24.11	 12.02	-28.06	 24.56	 0.27	 13.10	 12.41	 9.43	 43.91	 0.00	-0.52	-41.52	 10.47	-5.81	 0.00	-4.20	 54.98	-38.16	 61.31	 174.64	-76.84	 173.12	 0.71	 1.55	-0.02	-13.87	 0.00	-6.47	-99.12	-16.54	-119.50	 75.54	-43.68	 78.32	-1.56	 0.40	 0.01	 24.06	 11.08	-4.90	 5.77	 40.40	-2.33	 0.00	-18.25	 0.00	-26.19	 41.85	 18.17	 7.69	 20.72	-31.10	 0.00	-22.33	 0.00	
 17.58	 35.00	-23.98	 11.32	-27.36	 23.85	 0.57	 13.37	 11.99	 7.49	 46.43	 0.00	-2.19	-41.38	 7.95	-5.43	 0.00	-3.36	 57.19	-39.24	 67.37	-164.63	-78.21	-165.74	 0.71	 1.45	-0.02	-14.80	 0.00	-3.22	-100.10	-10.58	-121.56	 75.54	-44.09	 79.23	-1.54	 0.39	 0.01	 24.43	 10.90	-4.91	 4.89	 39.71	-0.75	 0.00	-17.19	 0.00	-25.70	 41.57	 17.71	 7.44	 19.59	-30.62	 0.00	-22.32	 0.00	
 17.46	 35.08	-23.85	 10.33	-26.54	 22.88	 0.47	 13.33	 11.77	 5.65	 48.71	 0.00	-4.72	-41.00	 4.07	-4.34	 0.00	-2.89	 59.14	-40.40	 72.65	-147.33	-77.79	-148.27	 0.72	 1.38	-0.02	-14.87	 0.00	-1.72	-99.38	-7.93	-120.34	 76.76	-48.62	 80.29	-1.50	 0.25	 0.01	 25.14	 10.48	-4.88	 3.29	 39.08	 2.20	 0.00	-15.55	 0.00	-24.96	 41.10	 17.01	 6.98	 18.28	-29.90	 0.00	-22.19	 0.00	
 17.35	 35.15	-23.74	 9.20	-25.57	 21.76	-0.09	 13.10	 11.48	 3.97	 50.56	 0.00	-8.05	-40.25	-1.10	-2.42	 0.00	-2.19	 60.89	-42.08	 76.98	-138.27	-76.92	-139.27	 0.72	 1.35	-0.02	-14.79	 0.00	-2.59	-96.45	-8.97	-116.71	 80.90	-55.39	 83.38	-1.44	-0.05	 0.00	 26.07	 9.67	-4.70	 0.64	 38.67	 7.27	 0.00	-13.34	 0.00	-24.15	 40.68	 16.29	 6.22	 16.44	-29.05	 0.00	-21.84	 0.00	
 17.29	 35.19	-23.64	 8.01	-24.42	 20.69	-0.95	 12.68	 10.93	 2.40	 51.86	 0.00	-11.76	-39.15	-6.97	 0.10	 0.00	-0.89	 62.73	-44.50	 80.33	-135.98	-76.86	-137.29	 0.72	 1.34	-0.02	-14.67	 0.00	-5.72	-92.92	-13.21	-111.50	 85.18	-62.37	 86.87	-1.41	-0.29	-0.01	 27.10	 8.28	-4.22	-2.82	 38.88	 14.19	 0.00	-11.16	 0.00	-23.38	 40.42	 15.66	 5.34	 13.94	-28.30	 0.00	-21.18	 0.00	
 17.33	 35.19	-23.53	 6.77	-23.22	 19.80	-1.75	 12.19	 10.03	 0.90	 52.61	 0.00	-15.38	-37.83	-12.82	 2.33	 0.00	 0.82	 65.58	-47.18	 83.18	-138.07	-77.63	-139.78	 0.72	 1.33	-0.02	-14.24	 0.00	-10.43	-90.62	-19.77	-105.51	 83.25	-68.96	 84.81	-1.45	-0.29	-0.01	 28.12	 6.51	-3.47	-6.33	 39.79	 21.59	 0.00	-9.98	 0.00	-22.66	 40.41	 15.14	 4.49	 10.99	-27.71	 0.00	-20.09	 0.00	
 17.52	 35.15	-23.40	 5.58	-22.32	 19.10	-2.12	 12.08	 9.03	-0.52	 52.86	 0.00	-18.49	-36.53	-17.92	 3.76	 0.00	 2.21	 69.96	-49.07	 86.61	-138.85	-78.82	-140.88	 0.72	 1.28	-0.02	-13.99	 0.00	-16.16	-88.83	-27.78	-98.89	 72.38	-75.33	 73.89	-1.50	-0.17	 0.00	 28.96	 5.14	-2.84	-9.09	 41.06	 27.39	 0.00	-10.53	 0.00	-22.22	 40.74	 14.93	 3.77	 8.10	-27.28	 0.00	-18.70	 0.00	
 17.93	 35.02	-23.23	 4.62	-21.82	 18.45	-2.12	 12.53	 7.95	-1.71	 52.78	 0.00	-20.77	-35.56	-21.66	 4.99	 0.00	 3.34	 75.34	-49.81	 91.06	-133.34	-80.31	-135.61	 0.72	 1.19	-0.02	-14.44	 0.00	-21.80	-85.46	-36.16	-91.28	 54.99	-81.62	 56.26	-1.51	-0.18	 0.00	 29.46	 4.77	-2.69	-11.04	 42.17	 30.83	 0.00	-12.70	 0.00	-22.41	 41.17	 15.19	 3.32	 5.93	-27.10	 0.00	-17.28	 0.00	
 18.52	 34.83	-23.00	 4.05	-21.48	 17.95	-2.01	 13.23	 6.17	-2.46	 52.55	 0.00	-21.98	-35.16	-23.60	 6.05	 0.00	 5.22	 81.53	-50.04	 95.77	-121.84	-82.18	-124.34	 0.73	 1.07	-0.01	-15.07	 0.00	-25.75	-80.59	-43.39	-83.29	 10.90	-87.08	 12.08	-1.48	-0.35	-0.01	 29.45	 5.16	-2.91	-12.45	 43.04	 32.55	 0.00	-15.77	 0.00	-23.22	 41.25	 15.80	 3.17	 5.10	-27.29	 0.00	-15.92	 0.00	
 19.26	 34.64	-22.74	 3.92	-21.09	 17.85	-1.98	 13.89	 3.80	-2.70	 52.20	 0.00	-22.03	-35.36	-23.58	 6.48	 0.00	 7.65	 88.42	-50.21	 100.17	-104.92	-84.35	-107.62	 0.74	 0.92	-0.01	-15.25	 0.00	-27.75	-76.56	-48.20	-77.31	-77.11	-86.39	-75.80	-1.45	-0.51	-0.01	 28.85	 5.65	-3.11	-13.50	 43.97	 33.46	 0.00	-18.74	 0.00	-24.29	 40.57	 16.35	 3.24	 6.34	-27.82	 0.00	-14.63	 0.00	
 20.10	 34.50	-22.43	 4.19	-20.70	 18.27	-2.14	 14.65	 1.79	-2.44	 51.74	 0.00	-21.04	-36.01	-21.85	 6.66	 0.00	 9.48	 94.76	-50.34	 103.95	-80.51	-86.23	-83.38	 0.74	 0.80	-0.01	-14.60	 0.00	-28.56	-76.01	-49.99	-76.24	-77.99	-85.30	-76.67	-1.46	-0.49	-0.01	 27.86	 6.04	-3.18	-14.54	 44.94	 34.21	 0.00	-21.17	 0.00	-25.42	 38.90	 16.61	 3.65	 10.18	-28.35	 0.00	-13.03	 0.00	
 20.97	 34.44	-22.09	 4.66	-20.49	 19.12	-2.43	 15.83	 1.02	-1.74	 51.14	 0.00	-19.18	-36.94	-18.75	 7.56	 0.00	 9.93	 99.06	-50.80	 106.66	-53.44	-87.41	-56.45	 0.74	 0.73	-0.01	-12.70	 0.00	-28.42	-79.70	-47.79	-81.72	-28.99	-85.79	-27.79	-1.50	-0.25	-0.01	 26.89	 6.56	-3.32	-15.88	 45.61	 35.02	 0.00	-23.26	 0.00	-26.38	 36.03	 16.26	 4.21	 16.89	-28.04	 0.00	-9.90	 0.00	
 21.80	 34.47	-21.74	 4.92	-20.34	 20.10	-2.42	 17.21	 0.52	-0.58	 50.30	 0.00	-16.56	-37.93	-14.53	 9.26	 0.00	 10.15	 101.08	-51.84	 108.05	-15.37	-88.43	-18.58	 0.75	 0.73	-0.01	-10.15	 0.00	-27.54	-84.63	-43.55	-89.60	 16.80	-82.79	 18.15	-1.53	 0.05	 0.00	 26.27	 7.21	-3.55	-17.33	 45.75	 35.75	 0.00	-25.08	 0.00	-26.72	 31.50	 14.74	 4.26	 26.18	-25.36	 0.00	-3.64	 0.00	
 22.52	 34.59	-21.39	 4.74	-19.94	 20.82	-1.70	 18.24	-1.70	 1.17	 49.07	 0.00	-13.37	-38.80	-9.50	 10.47	 0.00	 12.03	 101.93	-52.91	 108.38	 50.36	-88.04	 46.94	 0.75	 0.76	-0.01	-8.44	 0.00	-25.88	-87.71	-41.20	-94.93	 26.25	-80.53	 27.94	-1.55	 0.21	 0.01	 26.01	 7.76	-3.77	-18.54	 45.31	 36.31	 0.00	-26.34	 0.00	-26.52	 25.16	 11.98	 3.55	 36.77	-19.44	 0.00	 5.16	 0.00	
 23.12	 34.77	-21.02	 4.12	-19.20	 21.14	-0.33	 18.71	-5.38	 3.52	 47.35	 0.00	-9.97	-39.52	-4.22	 10.61	 0.00	 14.98	 101.81	-52.98	 108.37	 64.61	-87.08	 61.00	 0.75	 0.75	-0.01	-8.35	 0.00	-23.61	-88.41	-40.78	-97.94	 29.60	-80.27	 31.69	-1.55	 0.22	 0.01	 26.04	 8.18	-3.97	-19.49	 44.24	 36.88	 0.00	-26.81	 0.00	-26.17	 17.59	 8.45	 2.43	 46.95	-11.38	 0.00	 11.95	 0.00	
 23.59	 34.99	-20.59	 3.31	-18.31	 21.07	 1.39	 18.95	-8.47	 6.35	 45.19	 0.00	-6.70	-40.08	 0.84	 10.27	 0.00	 16.98	 100.21	-51.98	 108.62	 62.36	-87.90	 58.58	 0.74	 0.76	-0.01	-8.87	 0.00	-22.58	-88.85	-41.40	-100.45	 34.24	-80.34	 36.66	-1.55	 0.19	 0.01	 26.20	 8.80	-4.30	-20.11	 42.46	 37.60	 0.00	-26.56	 0.00	-26.06	 9.81	 4.76	 1.86	 55.34	-3.68	 0.00	 11.94	 0.00	
 23.97	 35.22	-20.06	 2.70	-17.53	 20.63	 2.92	 19.56	-8.97	 9.41	 42.75	 0.00	-3.87	-40.45	 5.20	 10.49	 0.00	 17.22	 97.29	-51.66	 108.82	 156.14	-89.57	 152.17	 0.74	 0.84	-0.01	-8.60	 0.00	-24.64	-91.42	-42.69	-103.78	 39.36	-79.91	 41.92	-1.55	 0.17	 0.00	 26.15	 10.11	-4.92	-20.41	 39.94	 38.60	 0.00	-25.87	 0.00	-26.44	 2.53	 1.26	 3.60	 61.12	-0.48	 0.00	 5.93	 0.00	
 24.28	 35.47	-19.44	 2.43	-16.77	 19.74	 4.00	 20.49	-7.22	 12.39	 40.32	 0.00	-1.66	-40.70	 8.59	 11.06	 0.00	 16.30	 94.00	-52.68	 108.88	-149.70	-87.55	-153.88	 0.74	 0.95	-0.01	-7.98	 0.00	-28.86	-95.52	-44.27	-107.63	 42.22	-79.60	 44.82	-1.53	 0.14	 0.00	 25.69	 12.11	-5.76	-20.38	 36.72	 39.80	 0.00	-24.87	 0.00	-27.19	-4.02	-2.06	 9.97	 63.51	-6.05	 0.00	-2.15	 0.00	
 24.52	 35.71	-18.69	 2.57	-15.81	 18.61	 4.52	 21.15	-4.49	 15.03	 38.06	 0.00	-0.02	-40.88	 11.10	 11.19	 0.00	 14.12	 91.20	-53.67	 109.11	-142.21	-85.73	-146.53	 0.74	 1.04	-0.01	-7.97	 0.00	-32.73	-99.01	-44.97	-110.64	 44.11	-79.83	 46.75	-1.51	 0.07	 0.00	 24.68	 14.57	-6.60	-19.75	 32.80	 40.80	 0.00	-23.40	 0.00	-28.00	-9.41	-4.97	 19.95	 61.60	-18.66	 0.00	-8.65	 0.00	
 24.69	 35.90	-17.77	 3.21	-14.66	 17.62	 4.26	 21.01	-1.04	 17.15	 36.15	 0.00	 1.13	-41.02	 12.87	 11.11	 0.00	 9.08	 88.66	-52.73	 109.35	-136.24	-84.23	-140.65	 0.74	 1.09	-0.01	-8.85	 0.00	-35.63	-100.38	-44.43	-111.24	 45.71	-80.25	 48.35	-1.51	-0.02	 0.00	 23.13	 17.46	-7.30	-18.28	 28.24	 41.28	 0.00	-21.23	 0.00	-28.51	-13.23	-7.09	 28.19	 56.02	-30.47	 0.00	-11.80	 0.00	
 24.76	 35.96	-16.62	 4.40	-13.54	 16.95	 3.16	 20.08	 1.97	 18.70	 34.61	 0.00	 1.83	-41.13	 13.96	 11.27	 0.00	 2.67	 86.19	-50.21	 109.15	-135.69	-83.61	-140.26	 0.74	 1.12	-0.01	-10.68	 0.00	-37.44	-99.40	-43.65	-109.23	 46.35	-80.43	 48.92	-1.52	-0.08	 0.00	 21.23	 20.89	-7.89	-15.90	 23.15	 41.15	 0.00	-18.18	 0.00	-28.11	-15.29	-8.02	 32.06	 49.17	-38.28	 0.00	-11.87	 0.00	
 24.67	 35.88	-15.19	 5.99	-12.68	 16.51	 1.34	 19.05	 3.66	 19.69	 33.38	 0.00	 2.16	-41.23	 14.47	 12.12	 0.00	-0.71	 83.66	-49.53	 107.86	-139.86	-84.11	-144.65	 0.74	 1.11	-0.01	-13.05	 0.00	-38.44	-96.94	-43.28	-106.35	 47.82	-79.82	 50.30	-1.54	-0.10	 0.00	 19.28	 24.84	-8.36	-12.70	 18.14	 40.58	 0.00	-14.08	 0.00	-26.22	-15.63	-7.56	 31.94	 44.05	-42.73	 0.00	-11.17	 0.00	
